<mxfile host="app.diagrams.net" modified="2024-01-02T18:02:00.942Z" agent="Mozilla/5.0 (X11; Linux x86_64) AppleWebKit/537.36 (KHTML, like Gecko) Chrome/120.0.0.0 Safari/537.36" version="22.1.16" etag="CUaR3E7rAMQXh_7YOrKO" type="github">
  <diagram name="Page-1" id="5I-WxUCMCBsq6pxq_unu">
    <mxGraphModel>
      <root>
        <mxCell id="0" />
        <mxCell id="1" parent="0" />
      </root>
    </mxGraphModel>
  </diagram>
</mxfile>
